<svg xmlns="http://www.w3.org/2000/svg" viewBox="0 0 512 512">
  <style>
    .letter {
      fill: #454360
    }

    @media (prefers-color-scheme: dark) {
      .letter {
        fill: #ffffff;
      }
    }
  </style>
  <path class="letter" fill-rule="evenodd" d="M207.7 395.8q39.2 0 66.2-11.8t41.2-36.2q14.2-24.4 15.8-61.6.4-17.2.4-30.4T331 225q-1.2-35.6-16-59.8t-42.4-36.8q-27.6-12.6-66.8-12.6h-104a9.6 9.6 0 00-10 10v260a9.6 9.6 0 0010 10h106zm-44.4-222.4h40.4q26.4 0 39.8 12.6t14.2 39.8q.8 11.2 1 20.4t0 18.4q-.2 9.2-1 20.8-.4 18.8-6.2 30.4a36 36 0 01-17.2 17q-11.4 5.4-28.6 5.4h-42.4V173.4z"/>
  <path fill="#ff4c60" fill-rule="evenodd" d="M411.3 396.2a7.8 7.8 0 005.5-2 7 7 0 002.3-5.5v-38a7.2 7.2 0 00-2.3-5.3 7.5 7.5 0 00-5.5-2.3h-37.8a7 7 0 00-5.4 2.3 7.4 7.4 0 00-2.1 5.2v38.1a7.2 7.2 0 007.5 7.5h37.8z" data-name="."/>
</svg>
